<svg width="49" height="41" viewBox="0 0 49 41" fill="none" xmlns="http://www.w3.org/2000/svg">
<path d="M15.7086 23.9295C16.6416 26.9195 16.3904 27.4273 18.8191 27.4273C25.9337 27.4273 31.1401 27.3708 39.1799 27.3708C40.3369 27.3708 41.1467 27.9335 41.1467 28.894C41.1467 29.9659 40.4526 30.5865 39.1799 30.5865C38.4445 30.5865 23.0421 30.5865 15.9276 30.5865C14.4238 30.5865 14.0189 30.1352 13.556 28.3863C13.2321 26.7616 9.39244 13.6591 7.48367 7.26542C7.48367 7.26542 4.88078 7.26542 3.26123 7.26542C2.42821 7.26542 1.8821 6.66746 1.87217 5.76396C1.86223 4.86046 2.62317 4.12793 3.54957 4.12793C3.54957 4.12793 6.38383 4.12793 9.27591 4.12793C10.0279 4.12793 10.1435 4.69208 10.4327 5.25623C10.4327 5.25623 10.9469 7.10345 11.6609 9.65658M15.7086 23.9295C14.7755 20.9395 15.7478 24.0598 15.7086 23.9295ZM15.7086 23.9295C15.7086 23.9295 18.0075 23.9178 21.1334 23.9019M15.7086 23.9295C15.4384 23.0323 14.9494 21.3296 14.3743 19.3035M11.6609 9.65658C11.6609 9.65658 14.0532 9.65208 17.4894 9.64561M11.6609 9.65658C12.0325 10.9857 12.5218 12.7319 12.9574 14.2826M17.4894 9.64561L21.1334 23.9019M17.4894 9.64561C20.1401 9.64062 23.4121 9.63447 26.6862 9.62832M21.1334 23.9019C22.8206 23.8934 24.7487 23.8836 26.6862 23.8738M26.6862 9.62832V23.8738M26.6862 9.62832C30.0504 9.622 33.4169 9.61569 36.1144 9.61064M26.6862 23.8738C28.6894 23.8636 30.7027 23.8535 32.4704 23.8446M36.1144 9.61064C39.4301 9.60444 40.6261 9.61064 41.378 9.61064C42.13 9.61064 41.7829 9.43092 40.6839 14.2826M36.1144 9.61064L32.4704 23.8446M32.4704 23.8446C35.6566 23.8286 37.8497 23.8167 38.1389 23.8167C38.4281 23.8167 38.3703 23.7039 39.4114 19.3035M14.3743 19.3035H39.4114M14.3743 19.3035C13.9133 17.6797 13.4605 16.0738 12.9574 14.2826M39.4114 19.3035L40.6839 14.2826M40.6839 14.2826H12.9574M18.4149 32.9559C20.2677 32.9559 21.7697 34.4209 21.7697 36.228C21.7697 38.0351 20.2677 39.5 18.4149 39.5C16.562 39.5 15.0601 38.0351 15.0601 36.228C15.0601 34.4209 16.562 32.9559 18.4149 32.9559ZM36.5772 32.9559C38.43 32.9559 39.932 34.4209 39.932 36.228C39.932 38.0351 38.43 39.5 36.5772 39.5C34.7244 39.5 33.2224 38.0351 33.2224 36.228C33.2224 34.4209 34.7244 32.9559 36.5772 32.9559Z" stroke="#9FD923" stroke-width="2"/>
<circle cx="41.779" cy="6.84884" r="6.34884" fill="#0D0D0D"/>
<path d="M38.8835 5.8125C38.8835 5.77669 38.8835 5.72298 38.8835 5.65137C38.8835 5.12077 38.8982 4.7985 38.9275 4.68457C38.9567 4.57389 39.0267 4.48275 39.1374 4.41113C39.17 4.3916 39.2302 4.36068 39.3181 4.31836L39.5671 4.18164C39.7071 4.12305 39.8536 4.05632 40.0066 3.98145C40.1628 3.90658 40.3581 3.78776 40.5925 3.625C40.8301 3.46224 40.9961 3.30599 41.0905 3.15625C41.8718 3.16927 42.4577 3.17578 42.8483 3.17578C43.0176 3.17578 43.1446 3.16927 43.2292 3.15625C43.2553 3.15951 43.2748 3.16764 43.2878 3.18066C43.3041 3.19368 43.3155 3.2181 43.322 3.25391C43.3285 3.28971 43.3317 3.32389 43.3317 3.35645C43.335 3.389 43.3366 3.44271 43.3366 3.51758V6.125C43.3366 6.61003 43.3464 7.33594 43.3659 8.30273C43.3855 9.26628 43.3952 9.99219 43.3952 10.4805C43.3789 10.5977 43.1446 10.6562 42.6921 10.6562C42.627 10.6562 42.5391 10.6546 42.4284 10.6514C42.3178 10.6481 42.2429 10.6465 42.2038 10.6465C42.1127 10.6465 41.9841 10.6481 41.8181 10.6514C41.6521 10.6546 41.53 10.6562 41.4519 10.6562C41.25 10.6562 40.9473 10.6497 40.5437 10.6367L40.4167 10.4707C40.3842 10.4382 40.3679 10.3698 40.3679 10.2656C40.3679 9.77083 40.3744 9.05469 40.3874 8.11719V5.98828C39.9089 6.30404 39.4629 6.52539 39.0495 6.65234C38.9942 6.65234 38.9535 6.64258 38.9275 6.62305C38.9014 6.60352 38.8868 6.56771 38.8835 6.51562V5.8125Z" fill="#E3FFF2"/>
</svg>
