<svg width="32" height="32" viewBox="0 0 32 32" fill="none" xmlns="http://www.w3.org/2000/svg">
<g id="Frame">
<path id="Vector" d="M3.2 28.6C2.32 28.6 1.56667 28.2867 0.94 27.66C0.313333 27.0333 0 26.28 0 25.4V6.2C0 5.32 0.313333 4.56667 0.94 3.94C1.56667 3.31333 2.32 3 3.2 3H28.8C29.68 3 30.4333 3.31333 31.06 3.94C31.6867 4.56667 32 5.32 32 6.2V25.4C32 26.28 31.6867 27.0333 31.06 27.66C30.4333 28.2867 29.68 28.6 28.8 28.6H3.2ZM16 17.4L3.2 9.4V25.4H28.8V9.4L16 17.4ZM16 14.2L28.8 6.2H3.2L16 14.2ZM3.2 9.4V6.2V25.4V9.4Z" fill="#9FD923"/>
</g>
</svg>
