<svg width="120" height="24" viewBox="0 0 120 24" fill="none" xmlns="http://www.w3.org/2000/svg">
<path d="M5.825 21L7.45 13.975L2 9.25L9.2 8.625L12 2L14.8 8.625L22 9.25L16.55 13.975L18.175 21L12 17.275L5.825 21Z" fill="#9FD923"/>
<path d="M29.825 21L31.45 13.975L26 9.25L33.2 8.625L36 2L38.8 8.625L46 9.25L40.55 13.975L42.175 21L36 17.275L29.825 21Z" fill="#9FD923"/>
<path d="M53.825 21L55.45 13.975L50 9.25L57.2 8.625L60 2L62.8 8.625L70 9.25L64.55 13.975L66.175 21L60 17.275L53.825 21Z" fill="#9FD923"/>
<path d="M77.825 21L79.45 13.975L74 9.25L81.2 8.625L84 2L86.8 8.625L94 9.25L88.55 13.975L90.175 21L84 17.275L77.825 21Z" fill="#9FD923"/>
<path d="M104.85 16.825L108 14.925L111.15 16.85L110.325 13.25L113.1 10.85L109.45 10.525L108 7.125L106.55 10.5L102.9 10.825L105.675 13.25L104.85 16.825ZM101.825 21L103.45 13.975L98 9.25L105.2 8.625L108 2L110.8 8.625L118 9.25L112.55 13.975L114.175 21L108 17.275L101.825 21Z" fill="#9FD923"/>
<path d="M104.85 16.825L108 14.925V7.125L106.55 10.5L102.9 10.825L105.675 13.25L104.85 16.825Z" fill="#9FD923"/>
</svg>
