<svg width="258" height="360" viewBox="0 0 258 360" fill="none" xmlns="http://www.w3.org/2000/svg">
<g filter="url(#filter0_i_114_138)">
<path d="M247.5 84.1772H47.5V203.797M247.5 84.1772C247.5 84.1772 47.5 93.0375 47.5 203.797M247.5 84.1772V350M47.5 203.797C247.5 203.797 247.5 223.734 247.5 350M47.5 203.797V350V234.81M47.5 203.797V234.81M247.5 350C175.5 350 47.5 350 47.5 234.81M47.5 66.4557V46.519M47.5 28.7975C47.5 27.0253 47.5 8.86076 47.5 0M67.5 44.3038L87.5 22.1519M27.5 44.3038L7.5 22.1519" stroke="#9FD923" stroke-width="20"/>
</g>
<defs>
<filter id="filter0_i_114_138" x="0.0776367" y="0" width="257.422" height="364" filterUnits="userSpaceOnUse" color-interpolation-filters="sRGB">
<feFlood flood-opacity="0" result="BackgroundImageFix"/>
<feBlend mode="normal" in="SourceGraphic" in2="BackgroundImageFix" result="shape"/>
<feColorMatrix in="SourceAlpha" type="matrix" values="0 0 0 0 0 0 0 0 0 0 0 0 0 0 0 0 0 0 127 0" result="hardAlpha"/>
<feOffset dy="4"/>
<feGaussianBlur stdDeviation="2"/>
<feComposite in2="hardAlpha" operator="arithmetic" k2="-1" k3="1"/>
<feColorMatrix type="matrix" values="0 0 0 0 0 0 0 0 0 0 0 0 0 0 0 0 0 0 0.25 0"/>
<feBlend mode="normal" in2="shape" result="effect1_innerShadow_114_138"/>
</filter>
</defs>
</svg>
