<svg width="32" height="32" viewBox="0 0 32 32" fill="none" xmlns="http://www.w3.org/2000/svg">
<g id="Frame" clip-path="url(#clip0_160_431)">
<path id="Vector" d="M7.04762 32C6.20952 32 5.49206 31.7016 4.89524 31.1048C4.29841 30.5079 4 29.7905 4 28.9524V13.7143C4 12.8762 4.29841 12.1587 4.89524 11.5619C5.49206 10.9651 6.20952 10.6667 7.04762 10.6667H8.57143V7.61905C8.57143 5.51111 9.31429 3.71429 10.8 2.22857C12.2857 0.742857 14.0825 0 16.1905 0C18.2984 0 20.0952 0.742857 21.581 2.22857C23.0667 3.71429 23.8095 5.51111 23.8095 7.61905V10.6667H25.3333C26.1714 10.6667 26.8889 10.9651 27.4857 11.5619C28.0825 12.1587 28.381 12.8762 28.381 13.7143V28.9524C28.381 29.7905 28.0825 30.5079 27.4857 31.1048C26.8889 31.7016 26.1714 32 25.3333 32H7.04762ZM7.04762 28.9524H25.3333V13.7143H7.04762V28.9524ZM16.1905 24.381C17.0286 24.381 17.746 24.0825 18.3429 23.4857C18.9397 22.8889 19.2381 22.1714 19.2381 21.3333C19.2381 20.4952 18.9397 19.7778 18.3429 19.181C17.746 18.5841 17.0286 18.2857 16.1905 18.2857C15.3524 18.2857 14.6349 18.5841 14.0381 19.181C13.4413 19.7778 13.1429 20.4952 13.1429 21.3333C13.1429 22.1714 13.4413 22.8889 14.0381 23.4857C14.6349 24.0825 15.3524 24.381 16.1905 24.381ZM11.619 10.6667H20.7619V7.61905C20.7619 6.34921 20.3175 5.26984 19.4286 4.38095C18.5397 3.49206 17.4603 3.04762 16.1905 3.04762C14.9206 3.04762 13.8413 3.49206 12.9524 4.38095C12.0635 5.26984 11.619 6.34921 11.619 7.61905V10.6667Z" fill="#9FD923"/>
</g>
<defs>
<clipPath id="clip0_160_431">
<rect width="32" height="32" fill="white"/>
</clipPath>
</defs>
</svg>
